PathFileType	4	(X/Y/Z)	Run_300 01
DataRate	CameraRate	NumFrames	NumMarkers	Units	OrigDataRate	OrigDataStartFrame	OrigNumFrames
100	100	7	42	mm	100	157	128
Frame#	Time	LASI			RASI			LPSI			RPSI			RTH1			RTH2			RTH3			LTH1			LTH2			LTH3			RTB1			RTB2			RTB3			LTB1			LTB2			LTB3			RCAL			RTOE			RMT5			LCAL			LTOE			LACR			RACR			CLAV			C7			RUA1			RUA2			RUA3			RLEL			RMEL			LUA1			LUA2			LUA3			LLEL			LMEL			RFAsuperior			RFAradius			RFAulna			LFAsuperior			LFAradius			LFAulna			LMT5			
		X1	Y1	Z1	X2	Y2	Z2	X3	Y3	Z3	X4	Y4	Z4	X5	Y5	Z5	X6	Y6	Z6	X7	Y7	Z7	X8	Y8	Z8	X9	Y9	Z9	X10	Y10	Z10	X11	Y11	Z11	X12	Y12	Z12	X13	Y13	Z13	X14	Y14	Z14	X15	Y15	Z15	X16	Y16	Z16	X17	Y17	Z17	X18	Y18	Z18	X19	Y19	Z19	X20	Y20	Z20	X21	Y21	Z21	X22	Y22	Z22	X23	Y23	Z23	X24	Y24	Z24	X25	Y25	Z25	X26	Y26	Z26	X27	Y27	Z27	X28	Y28	Z28	X29	Y29	Z29	X30	Y30	Z30	X31	Y31	Z31	X32	Y32	Z32	X33	Y33	Z33	X34	Y34	Z34	X35	Y35	Z35	X36	Y36	Z36	X37	Y37	Z37	X38	Y38	Z38	X39	Y39	Z39	X40	Y40	Z40	X41	Y41	Z41	X42	Y42	Z42	

151	1.93	688.906915	975.682169	-462.361417	695.668055	971.013686	-206.440538	507.114007	1064.339452	-373.545042	514.093902	1060.747484	-290.225659	623.1579400000001	844.631392	-150.120796	673.31425	706.902824	-165.984383	597.398904	601.967053	-190.668494	646.137173	870.050643	-521.7663240000001	758.445621	789.034728	-499.247658	735.905622	641.128286	-499.812768	594.7468260000001	355.046786	-263.38579	500.87359	286.79534	-226.695578	475.097849	195.2615	-295.773758	723.9084	450.997013	-426.372684	628.0684649999999	459.721859	-494.006583	535.471004	374.146414	-413.798857	294.887003	117.452158	-333.25369	522.631828	65.578975	-299.740502	473.564174	50.522735	-215.544191	346.800279	421.376689	-399.91616	444.958476	210.730436	-402.917713	684.225362	1529.592613	-478.163165	686.1644680000001	1482.501433	-144.799617	756.337862	1449.240631	-294.431951	624.182168	1536.11808	-327.296316	627.247509	1369.440583	-70.279769	549.020863	1298.602221	-93.228162	586.980717	1256.316828	-44.986925	565.6126420000001	1163.267368	-21.568844	538.664066	1144.924481	-96.54025	614.9420699999999	1459.979187	-583.468192	532.38391	1398.988601	-579.953341	565.365103	1370.421061	-649.120959	543.85009	1294.095703	-696.237959	480.669178	1277.264734	-652.279672	624.9125770000001	1106.979023	-20.037694	812.101225	1046.337309	-83.90960800000001	770.269043	991.951626	-60.584025	604.103515	1185.809819	-661.516239	684.399176	1111.315605	-549.725604	644.3590809999999	1070.440705	-585.386694	401.771199	223.154286	-482.44675	
152	1.94	688.785467	981.1396580000001	-462.30041	695.364408	973.605757	-206.39555	507.083915	1069.73603	-373.107794	514.456284	1065.740089	-289.610161	618.649431	848.048264	-150.794646	663.564184	708.270252	-168.595277	582.193863	606.4653489999999	-192.486916	648.892787	878.337849	-522.221359	762.762839	800.4858390000001	-498.026121	744.667343	651.535378	-499.381235	571.81485	359.02246	-264.332297	476.959835	292.707814	-226.824643	450.168278	200.48865	-294.644888	741.25701	458.032967	-426.725212	644.915438	460.614979	-494.117806	557.703785	367.955108	-413.885628	268.83816	126.870779	-331.754082	492.267732	65.069509	-298.914113	443.574085	50.802551	-215.655154	365.748961	400.709662	-402.501063	481.840923	199.44565	-401.628627	682.2523650000001	1535.244968	-479.591189	688.4241490000001	1488.425084	-146.562253	756.274407	1455.199422	-297.329505	623.8921779999999	1541.111818	-328.359392	632.0489229999999	1374.414467	-71.401191	553.526947	1303.262558	-91.764438	594.2666819999999	1260.366648	-45.750473	573.592846	1167.211324	-23.002922	544.772327	1149.211257	-97.56343699999999	610.5067340000001	1468.35267	-584.171029	527.007888	1409.623265	-580.717012	558.5055180000001	1380.257417	-650.019731	533.639998	1305.142038	-697.087191	470.532206	1289.683646	-652.555609	634.746967	1113.149796	-23.93727	822.048276	1060.416768	-93.819412	783.1524429999999	1004.306291	-69.699083	592.423172	1196.34392	-663.424665	672.2115	1119.908299	-552.633618	631.45246	1079.457646	-588.1657709999999	438.06795	206.59332	-481.621946	
153	1.95	689.653574	987.193976	-462.707331	695.588782	976.632875	-206.129582	508.085273	1075.769265	-373.118403	515.550715	1071.39623	-289.226819	615.010635	852.133909	-151.809138	654.798722	710.862112	-171.560148	568.065138	612.326602	-194.250172	651.713136	887.538965	-522.633515	766.5639210000001	812.3462929999999	-496.767071	752.255679	662.415079	-499.260121	549.947281	364.556145	-265.321229	454.318747	300.1184	-226.624301	426.727348	207.023716	-293.090773	757.177596	465.316414	-427.439255	660.943718	460.944696	-494.353894	580.106622	361.196113	-414.813858	244.346087	138.191184	-329.858948	462.159592	64.469446	-297.952177	414.031921	51.295685	-215.854053	386.632461	378.144647	-404.510345	520.123621	188.218225	-400.612821	680.4682749999999	1541.248606	-481.196383	690.822261	1495.26335	-148.631646	756.306477	1461.934501	-300.384341	623.691165	1546.754096	-329.80946	636.312627	1380.558118	-72.674823	557.563393	1309.167047	-91.072014	600.69975	1265.623414	-47.142541	580.850426	1172.496363	-24.550408	550.228216	1154.765726	-98.721273	606.339723	1476.884891	-584.948715	522.074661	1420.592302	-581.054712	551.838456	1390.136423	-650.6165590000001	523.7236329999999	1316.225338	-697.54601	460.72289	1302.128653	-652.37623	643.5435220000001	1120.4624	-28.001601	830.501926	1075.193179	-103.643789	794.277568	1017.550495	-79.117711	581.220059	1207.008594	-664.873141	661.127719	1129.224279	-555.002918	619.494146	1089.089047	-590.032042	475.801548	189.876033	-480.540997	
154	1.96	691.4679190000001	993.549891	-463.51227	696.2236779999999	980.082762	-205.762409	510.053023	1082.071749	-373.540595	517.086529	1077.204099	-289.208787	612.4840809999999	856.484228	-153.435469	646.927683	714.44481	-174.524422	555.3301719999999	619.217226	-195.82117	654.527875	897.328981	-523.102588	769.771199	824.107401	-495.805539	758.3542169999999	673.105442	-499.172013	529.523366	371.434276	-266.313785	433.220988	308.773081	-226.042173	405.012956	214.726913	-291.381641	771.840287	472.162834	-428.438603	676.114004	460.594603	-494.74489	603.322527	353.889547	-416.600216	221.856765	151.202902	-327.74441	432.751737	63.989873	-297.284387	384.955237	51.964463	-215.987438	409.494219	354.005704	-405.729801	559.615946	177.269162	-400.172697	678.9273470000001	1547.361374	-482.932401	693.277476	1502.534356	-151.111304	756.448935	1469.093719	-303.496468	623.709778	1552.918078	-331.561371	640.221405	1387.603886	-74.01479500000001	561.291927	1316.077936	-91.32317	606.005625	1271.95287	-48.957346	587.367665	1178.885234	-26.22186	555.076246	1161.301103	-100.057645	602.378493	1485.348656	-585.660039	517.525933	1431.313164	-580.760897	545.2452	1399.976406	-650.845939	514.230686	1327.104193	-697.608234	451.544779	1314.270779	-651.535975	651.309644	1128.618653	-32.152892	837.509446	1090.240149	-113.195832	803.62316	1031.199516	-88.601119	570.541356	1217.382555	-665.878823	651.242609	1138.691078	-556.989204	608.5459059999999	1098.912106	-591.080228	514.812445	173.454812	-479.548753	
155	1.97	694.054632	999.844967	-464.305063	697.190915	984.041232	-205.455611	512.782827	1088.280559	-373.965857	518.893382	1082.606506	-289.352212	610.972623	860.963857	-155.421902	639.826159	718.718289	-177.252259	543.9954729999999	626.82229	-197.259912	657.2227329999999	907.258293	-523.70372	772.3582259999999	835.242092	-495.288628	762.7173320000001	683.0119549999999	-498.999174	510.783068	379.366342	-266.982282	413.943974	318.328469	-225.100769	385.306199	223.26387	-289.471686	785.312535	478.188545	-429.814293	690.324054	459.475543	-495.327903	627.46626	345.950902	-418.6852	201.831615	165.607648	-325.535061	404.1888	63.809119	-297.135186	356.270097	52.745172	-215.940074	434.201879	328.583202	-405.933384	599.969324	166.720284	-400.534437	677.648231	1553.438616	-484.776833	695.689564	1509.909607	-153.96161	756.708123	1476.288687	-306.734469	623.985227	1559.43729	-333.535285	643.869083	1395.216615	-75.453356	564.6999520000001	1323.66255	-92.40491299999999	610.2134610000001	1279.182062	-50.806747	593.100253	1186.13905	-27.917601	559.29814	1168.568271	-101.528006	598.631842	1493.599185	-586.244507	513.28831	1441.243594	-579.872416	538.747418	1409.657311	-650.710979	505.302046	1337.506647	-697.261982	443.290568	1325.756177	-649.92617	658.064331	1137.346521	-36.265426	843.132672	1105.141317	-122.192822	811.206258	1044.802176	-97.965407	560.612119	1227.194756	-666.472363	642.6324519999999	1147.852268	-558.672323	598.7721299999999	1108.474589	-591.464466	554.780144	157.699909	-479.084821	
156	1.98	696.906846	1005.913857	-464.707747	698.471062	988.491656	-205.524995	515.764068	1094.263467	-374.001541	520.886736	1087.408688	-289.359005	609.990048	865.669667	-157.259211	633.411786	723.454035	-179.564606	533.8717	634.925537	-198.635254	659.653719	916.777208	-524.436239	774.296366	845.244443	-495.3197	765.248116	691.757819	-498.777033	493.883974	387.979392	-266.977784	396.726195	328.389046	-223.831071	367.865793	232.195115	-287.131464	797.423152	483.2401	-431.508582	703.492467	457.336703	-496.085317	652.072258	337.412479	-420.532397	184.619293	181.219054	-323.224267	376.384754	64.005505	-297.398905	328.173549	53.775514	-215.795846	460.688528	302.24251	-405.166482	640.86945	156.740227	-401.871569	676.616974	1559.366376	-486.737181	697.962759	1517.220258	-157.006081	757.040673	1483.225006	-310.195786	624.454232	1566.070434	-335.676004	647.219009	1403.005659	-77.076567	567.666681	1331.579234	-93.95850900000001	613.5342010000001	1287.045788	-52.37704	597.97708	1193.896019	-29.529632	562.812013	1176.289595	-102.974774	595.164033	1501.481148	-586.751075	509.370478	1450.071882	-578.591039	532.535716	1418.920321	-650.307597	497.097417	1347.108482	-696.548838	436.120413	1336.235806	-647.720768	663.794521	1146.34238	-40.182292	847.400769	1119.428161	-130.472046	817.043661	1057.956748	-107.082723	551.727393	1236.250478	-666.7139120000001	635.393586	1156.426686	-560.106847	590.361435	1117.419265	-591.361611	595.341931	142.879936	-479.511361	
157	1.99	699.36807	1011.801403	-464.748788	700.061567	993.23742	-206.157576	518.352757	1100.080502	-373.668749	522.999009	1091.974546	-289.185125	609.01741	870.7496149999999	-158.617583	627.671963	728.494744	-181.325781	524.793849	643.342507	-199.867242	661.652593	925.348165	-525.218316	775.455951	853.602782	-496.05666	765.897256	699.028632	-498.484575	478.923004	396.875953	-266.358989	381.664709	338.558917	-222.259106	352.707455	241.177107	-284.367048	807.9212199999999	487.193331	-433.251823	715.6299729999999	453.796578	-496.960511	676.553037	328.477315	-422.03636	170.374974	197.997804	-320.708588	349.410903	64.574656	-297.715641	301.29209	55.519861	-215.864684	488.946934	275.465681	-403.8992	682.04634	147.613209	-404.126443	675.804361	1564.961248	-488.842128	700.007686	1524.300098	-160.067588	757.370378	1489.795187	-313.793313	625.021157	1572.503987	-337.950751	650.184051	1410.66655	-78.857277	570.135789	1339.524449	-95.598055	616.188221	1295.167956	-53.593403	601.955786	1201.682132	-31.019586	565.510941	1184.114802	-104.196539	592.059661	1508.756624	-587.294564	505.871719	1457.730073	-577.216949	526.902871	1427.358297	-649.793684	489.780091	1355.586097	-695.5828780000001	430.035516	1345.404781	-645.297186	668.441073	1155.222001	-43.775385	850.316182	1132.609024	-138.121304	821.1893260000001	1070.294514	-115.788941	544.124199	1244.373502	-666.682878	629.63422	1164.269257	-561.3473310000001	583.4730049999999	1125.520353	-590.968259	636.284207	129.209713	-480.900579	
